<svg id="Expenses" xmlns="http://www.w3.org/2000/svg" width="26.002" height="22" viewBox="0 0 26.002 22">
  <path id="Fill_94" data-name="Fill 94" d="M.543,22A.546.546,0,0,1,0,21.457V.544H0a.543.543,0,1,1,1.086,0V20.913H25.459a.544.544,0,0,1,0,1.087H.543" transform="translate(0)" fill="#77869e"/>
  <path id="Fill_95" data-name="Fill 95" d="M4.112,3.275A1.055,1.055,0,0,1,3.06,4.327H1.053A1.055,1.055,0,0,1,0,3.275V1.052A1.055,1.055,0,0,1,1.053,0H3.06A1.055,1.055,0,0,1,4.112,1.052V3.275" transform="translate(2.802 15.155)" fill="#77869e"/>
  <path id="Fill_96" data-name="Fill 96" d="M4.113,8.037A1.055,1.055,0,0,1,3.06,9.089H1.053A1.055,1.055,0,0,1,0,8.037V1.053A1.056,1.056,0,0,1,1.053,0H3.06A1.056,1.056,0,0,1,4.113,1.053V8.037" transform="translate(8.029 10.394)" fill="#77869e"/>
  <path id="Fill_97" data-name="Fill 97" d="M4.111,10.2A1.113,1.113,0,0,1,3,11.311H1.109A1.112,1.112,0,0,1,0,10.2V1.11A1.113,1.113,0,0,1,1.109,0H3A1.113,1.113,0,0,1,4.111,1.11V10.2" transform="translate(18.753 8.172)" fill="#77869e"/>
  <path id="Fill_98" data-name="Fill 98" d="M4.113,5.873A1.055,1.055,0,0,1,3.06,6.925H1.053A1.055,1.055,0,0,1,0,5.873V1.053A1.056,1.056,0,0,1,1.053,0H3.06A1.056,1.056,0,0,1,4.113,1.053v4.82" transform="translate(13.255 12.558)" fill="#77869e"/>
  <path id="Fill_99" data-name="Fill 99" d="M19.509,0l-4,.437,1.319,1.319-4.341,5.3L7.983,2.9a.813.813,0,0,0-1.1-.007L.268,8.867a.812.812,0,0,0,1.089,1.206h0l6.069-5.48,4.592,4.245A.812.812,0,0,0,13.2,8.756L17.98,2.91,19.074,4l.435-4" transform="translate(2.513 1.657)" fill="#77869e"/>
</svg>
