<svg id="Home" xmlns="http://www.w3.org/2000/svg" width="24.963" height="22" viewBox="0 0 24.963 22">
  <path id="Fill_49" data-name="Fill 49" d="M23.964,0H1A.918.918,0,0,0,0,.8V.835a.918.918,0,0,0,1,.8H23.964a.915.915,0,0,0,1-.8V.8a.916.916,0,0,0-1-.8" transform="translate(0 20.37)" fill="#77869e"/>
  <path id="Fill_50" data-name="Fill 50" d="M2.532,8.874H.935A.943.943,0,0,1,0,7.926V.949A.943.943,0,0,1,.935,0h1.6a.944.944,0,0,1,.937.949V7.926A.943.943,0,0,1,2.532,8.874Zm14.036,0H14.974a.942.942,0,0,1-.934-.947V.949A.943.943,0,0,1,14.974,0h1.594a.944.944,0,0,1,.937.949V7.926A.943.943,0,0,1,16.568,8.873Zm-7.017,0h-1.6a.942.942,0,0,1-.935-.947V.949A.943.943,0,0,1,7.955,0h1.6a.944.944,0,0,1,.937.949V7.926A.943.943,0,0,1,9.551,8.873Z" transform="translate(3.73 7.385)" fill="#77869e"/>
  <path id="Fill_51" data-name="Fill 51" d="M24.378,4.664,12.649.031a.734.734,0,0,0-.422,0L.49,4.664a.644.644,0,0,0-.482.712A.688.688,0,0,0,.7,5.925H24.166a.686.686,0,0,0,.7-.549.644.644,0,0,0-.484-.712" transform="translate(0.048)" fill="#77869e"/>
  <path id="Fill_112" data-name="Fill 112" d="M22.518.8V.834a.916.916,0,0,1-1,.8H1a.919.919,0,0,1-1-.8V.8A.919.919,0,0,1,1,0H21.52a.916.916,0,0,1,1,.8" transform="translate(1.222 17.569)" fill="#77869e"/>
</svg>
