<svg id="Group_7" data-name="Group 7" xmlns="http://www.w3.org/2000/svg" width="20.512" height="21.778" viewBox="0 0 20.512 21.778">
  <path id="Fill_100" data-name="Fill 100" d="M0,3.785,1.464,7.532l1.448-3.7L2.138,1.2A.346.346,0,0,0,2.253.95v-.6A.35.35,0,0,0,1.9,0H.99A.349.349,0,0,0,.64.348v.6a.343.343,0,0,0,.152.279L0,3.785" transform="translate(8.793 12.097)" fill="#77869e"/>
  <path id="Fill_101" data-name="Fill 101" d="M14.039,0,10.256,9.671,6.478,0C2.65,1.5.769,5.193,0,9.73H20.512C19.741,5.2,17.864,1.5,14.039,0" transform="translate(0 12.048)" fill="#77869e"/>
  <path id="Fill_102" data-name="Fill 102" d="M5.585,11.128a5.564,5.564,0,1,1,5.584-5.564A5.58,5.58,0,0,1,5.585,11.128ZM3.029,2.314A6.153,6.153,0,0,1,.97,5.822a4.623,4.623,0,1,0,9.113-1.314,7.625,7.625,0,0,1-1.58.166A7.327,7.327,0,0,1,3.029,2.314Z" transform="translate(4.714)" fill="#77869e"/>
</svg>
