<svg id="Wallet" xmlns="http://www.w3.org/2000/svg" width="21.52" height="21.811" viewBox="0 0 21.52 21.811">
  <path id="Fill_58" data-name="Fill 58" d="M15.4,19.053H13.11a.467.467,0,0,1-.466-.466v-.8a9.886,9.886,0,0,1-3.535,0v.8a.467.467,0,0,1-.467.466H6.354a.467.467,0,0,1-.466-.466V16.573A8.291,8.291,0,0,1,2.27,12.13H1.04A1.042,1.042,0,0,1,0,11.089V7.928a1.042,1.042,0,0,1,1.04-1.04H2.486A8.245,8.245,0,0,1,5.068,3.572L5.4.36C5.427.138,5.542,0,5.7,0a.437.437,0,0,1,.256.1L8.143,1.757a4.345,4.345,0,0,0,4.12,2.967,4.364,4.364,0,0,0,3.494-1.772,8.147,8.147,0,0,1,4,5.62h.728a1.04,1.04,0,0,1,0,2.08h-.669a8.051,8.051,0,0,1-3.947,5.92v2.014A.467.467,0,0,1,15.4,19.053ZM4.748,6.628h0A1.35,1.35,0,1,0,6.056,4.954a1.325,1.325,0,0,0-.669.184l.028-.005a.834.834,0,0,1,.106-.009.952.952,0,1,1-.773,1.5Z" transform="translate(0 2.758)" fill="#77869e"/>
  <path id="Fill_59" data-name="Fill 59" d="M3.136,6.27A3.135,3.135,0,1,1,6.27,3.135,3.139,3.139,0,0,1,3.136,6.27ZM1.927,3.8l-.181.723a2.869,2.869,0,0,0,1,.224v.487H3.39V4.7c.649-.11,1.051-.493,1.051-1S4.16,2.923,3.47,2.71c-.5-.16-.668-.256-.668-.382,0-.084.057-.226.436-.226a2.121,2.121,0,0,1,.814.163l.039.015.18-.7a2.4,2.4,0,0,0-.858-.166V.972H2.775v.487c-.627.117-1,.48-1,.972,0,.462.324.764,1.052.979.434.125.588.225.588.382s-.175.241-.491.241A2.427,2.427,0,0,1,1.927,3.8Z" transform="translate(9.127)" fill="#77869e"/>
</svg>
