<svg xmlns="http://www.w3.org/2000/svg" width="33.987" height="21.892" viewBox="0 0 33.987 21.892">
  <g id="Add_Card" data-name="Add Card" transform="translate(0 -0.052)">
    <path id="Path" d="M31.314,2.9a2.9,2.9,0,0,0-2.9-2.9H2.9A2.9,2.9,0,0,0,0,2.9V5.431H31.314Z" transform="translate(0 0.052)" fill="#0047cc"/>
    <path id="Path-2" data-name="Path" d="M5.8,2.086H3.889V.18A.18.18,0,0,0,3.708,0H2.268a.18.18,0,0,0-.18.18V2.085H.18a.18.18,0,0,0-.18.18V3.7a.18.18,0,0,0,.18.18H2.089V5.79a.18.18,0,0,0,.18.18H3.71a.18.18,0,0,0,.18-.18V3.884H5.8a.18.18,0,0,0,.18-.18V2.266A.18.18,0,0,0,5.8,2.086Z" transform="translate(23.804 11.779)" fill="#0eafe6"/>
    <rect id="Rectangle" width="31.28" height="4.074" transform="translate(0 5.483)" fill="#0eafe6"/>
    <path id="Shape" d="M26.8,14.356a7.193,7.193,0,0,1-4.649-1.708H2.9A2.9,2.9,0,0,1,0,9.752V.969H23.195a7.18,7.18,0,1,1,3.6,13.387Zm0-11.727a4.55,4.55,0,1,0,4.556,4.55A4.558,4.558,0,0,0,26.8,2.629ZM4.6,7.178a.373.373,0,0,0-.373.372V8.68a.373.373,0,0,0,.373.372h5.736a.372.372,0,0,0,.372-.372V7.55a.372.372,0,0,0-.372-.372Z" transform="translate(0 7.589)" fill="#0047cc"/>
  </g>
</svg>
