<svg xmlns="http://www.w3.org/2000/svg" width="48" height="48" viewBox="0 0 48 48">
  <g id="Group_16" data-name="Group 16" transform="translate(-240 3726)">
    <path id="Path_35" data-name="Path 35" d="M0,0H48V48H0Z" transform="translate(240 -3726)" fill="none"/>
    <g id="invoice" transform="translate(207.3 -3721)">
      <g id="Group_15" data-name="Group 15" transform="translate(40.7)">
        <g id="XMLID_2160_" transform="translate(8.391 9.499)">
          <path id="XMLID_2161_" d="M163.957,147.009l1.472-1.472,1.472,1.472,1.472,1.472,1.472-1.472V122.557A2.556,2.556,0,0,0,167.289,120H146.7a2.556,2.556,0,0,1,2.557,2.557V147l1.472,1.472L152.2,147l1.472-1.472L155.146,147l1.472,1.472L158.091,147l1.472-1.472L161.036,147l1.472,1.472Z" transform="translate(-146.7 -120)" fill="#0041c4"/>
        </g>
        <path id="Path_27" data-name="Path 27" d="M216.82,182.241h13.394a.72.72,0,1,0,0-1.441H216.82a.72.72,0,1,0,0,1.441Z" transform="translate(-202.215 -166.488)" fill="#00b3f3"/>
        <path id="Path_28" data-name="Path 28" d="M216.82,230.541h9.729a.72.72,0,1,0,0-1.441H216.82a.72.72,0,1,0,0,1.441Z" transform="translate(-202.215 -210.964)" fill="#00b3f3"/>
        <path id="Path_29" data-name="Path 29" d="M216.82,274.841h13.394a.72.72,0,1,0,0-1.441H216.82a.72.72,0,1,0,0,1.441Z" transform="translate(-202.215 -251.758)" fill="#00b3f3"/>
        <path id="Path_30" data-name="Path 30" d="M218.095,323.9H216.82a.72.72,0,1,0,0,1.441h1.274a.72.72,0,1,0,0-1.441Z" transform="translate(-202.215 -298.26)" fill="#00b3f3"/>
        <path id="Path_31" data-name="Path 31" d="M218.095,368.2H216.82a.72.72,0,1,0,0,1.441h1.274a.72.72,0,1,0,0-1.441Z" transform="translate(-202.215 -339.053)" fill="#00b3f3"/>
        <path id="Path_32" data-name="Path 32" d="M278.374,323.9H269.12a.72.72,0,0,0,0,1.441h9.254a.72.72,0,0,0,0-1.441Z" transform="translate(-250.375 -298.26)" fill="#00b3f3"/>
        <path id="Path_33" data-name="Path 33" d="M275.421,368.82a.723.723,0,0,0-.72-.72H269.12a.72.72,0,0,0,0,1.441H274.7A.723.723,0,0,0,275.421,368.82Z" transform="translate(-250.375 -338.961)" fill="#00b3f3"/>
        <path id="Path_34" data-name="Path 34" d="M64.369,38.488a.721.721,0,0,0,1.013,0l2.438-2.438,2.438,2.438a.707.707,0,0,0,1.013,0l1.472-1.472a.72.72,0,0,0,.214-.507V12.056a3.27,3.27,0,0,0-3.269-3.269h-5.5V.72a.723.723,0,0,0-.72-.72H41.42a.723.723,0,0,0-.72.72V25.165a3.27,3.27,0,0,0,3.269,3.269h4.148a.72.72,0,0,0,0-1.441H46.677a3.255,3.255,0,0,0,.57-1.837v-13.1a1.837,1.837,0,0,1,3.673,0V36.5a.872.872,0,0,0,.016.142c.008.032.016.055.024.087.008.016.008.032.016.048a.863.863,0,0,0,.047.087c.008.008.008.024.016.032a.6.6,0,0,0,.087.111L52.6,38.48a.721.721,0,0,0,1.013,0l2.438-2.438,2.438,2.438a.721.721,0,0,0,1.013,0l2.438-2.438ZM45.814,12.056V25.165a1.837,1.837,0,1,1-3.673,0V1.433H62.754V8.787H49.083A3.27,3.27,0,0,0,45.814,12.056Zm13.18,24.9-2.438-2.438a.707.707,0,0,0-1.013,0L53.1,36.96l-.752-.752V12.056c0-.1-.008-.206-.016-.3,0-.032-.008-.055-.008-.087a1.99,1.99,0,0,0-.032-.214c-.008-.032-.008-.055-.016-.087a1.691,1.691,0,0,0-.071-.269c0-.008,0-.008-.008-.016a2.708,2.708,0,0,0-.1-.269.821.821,0,0,1-.032-.079,2.124,2.124,0,0,0-.095-.19.735.735,0,0,1-.04-.079c-.04-.071-.087-.15-.135-.222-.008-.008-.008-.016-.016-.024v-.008H69.665A1.838,1.838,0,0,1,71.5,12.048v24.16l-.752.752-2.438-2.438a.721.721,0,0,0-1.013,0L64.86,36.96l-2.414-2.43a.721.721,0,0,0-1.013,0Z" transform="translate(-40.7)" fill="#0041c4"/>
      </g>
    </g>
  </g>
</svg>
