<svg id="Bill" xmlns="http://www.w3.org/2000/svg" width="40" height="40" viewBox="0 0 40 40">
  <rect id="Rectangle" width="40" height="40" rx="8" fill="#ffcea2"/>
  <path id="Path" d="M.962.418A.453.453,0,0,0,.481,0,.453.453,0,0,0,0,.418.453.453,0,0,0,.481.836.453.453,0,0,0,.962.418Z" transform="translate(17.613 21.216)" fill="#fff"/>
  <path id="Path-2" data-name="Path" d="M.481,0A.453.453,0,0,0,0,.418.453.453,0,0,0,.481.836.454.454,0,0,0,.962.418.453.453,0,0,0,.481,0Z" transform="translate(17.613 18.248)" fill="#fff"/>
  <path id="Path-3" data-name="Path" d="M.962.418A.453.453,0,0,0,.481,0,.453.453,0,0,0,0,.418.453.453,0,0,0,.481.836.453.453,0,0,0,.962.418Z" transform="translate(17.613 15.28)" fill="#fff"/>
  <path id="Path-4" data-name="Path" d="M10.612,1.2V0H0V1.2A2.119,2.119,0,0,0,2.177,3.244h9.477a1.411,1.411,0,0,1-.215-.179A2.561,2.561,0,0,1,10.612,1.2Z" transform="translate(12 24.726)" fill="#fff"/>
  <path id="Shape" d="M10.5,15.58H10.49a2.13,2.13,0,0,1-2.181-2.047V12.02a.266.266,0,0,0-.085-.2.3.3,0,0,0-.205-.079H0L.084,0H12.662c-.015.068-.02,1.045-.013,2.988H5.484a.3.3,0,1,0,0,.6H12.65l0,.544v.036l0,.26v.013l0,.26c0,.23,0,.436,0,.609V5.263c0-.015,0-.031,0-.046l0,.514v7.807A2.112,2.112,0,0,1,10.5,15.58ZM3.155,8.229A1.07,1.07,0,0,0,2.039,9.244,1.07,1.07,0,0,0,3.155,10.26,1.071,1.071,0,0,0,4.271,9.244,1.071,1.071,0,0,0,3.155,8.229Zm2.329.735a.3.3,0,1,0,0,.6h4.838a.3.3,0,1,0,0-.6Zm-2.329-3.7A1.07,1.07,0,0,0,2.039,6.276,1.07,1.07,0,0,0,3.155,7.292,1.071,1.071,0,0,0,4.271,6.276,1.071,1.071,0,0,0,3.155,5.261Zm2.329.716a.3.3,0,1,0,0,.6h4.838a.3.3,0,1,0,0-.6ZM3.155,2.292A1.07,1.07,0,0,0,2.039,3.308,1.07,1.07,0,0,0,3.155,4.324,1.071,1.071,0,0,0,4.271,3.308,1.071,1.071,0,0,0,3.155,2.292Z" transform="translate(14.939 12.39)" fill="#fff"/>
</svg>
