<svg id="calculation" xmlns="http://www.w3.org/2000/svg" width="19.919" height="21.809" viewBox="0 0 19.919 21.809">
  <path id="Fill_69" data-name="Fill 69" d="M13.892,3.6H.415A.421.421,0,0,1,0,3.184V.415A.42.42,0,0,1,.415,0H13.892a.42.42,0,0,1,.415.415V3.184a.421.421,0,0,1-.415.416" transform="translate(2.806 2.993)" fill="#0eafe6"/>
  <path id="Fill_70" data-name="Fill 70" d="M17.546,21.809H2.372A2.375,2.375,0,0,1,0,19.436V2.372A2.375,2.375,0,0,1,2.372,0H17.546a2.375,2.375,0,0,1,2.372,2.372V19.436A2.375,2.375,0,0,1,17.546,21.809Zm-2.475-6.62a1.976,1.976,0,1,0,1.975,1.976A1.978,1.978,0,0,0,15.071,15.188Zm-5.111,0a1.976,1.976,0,1,0,1.976,1.976A1.978,1.978,0,0,0,9.96,15.188Zm-5.112,0a1.976,1.976,0,1,0,1.976,1.976A1.977,1.977,0,0,0,4.848,15.188ZM15.071,9.727A1.976,1.976,0,1,0,17.045,11.7,1.978,1.978,0,0,0,15.071,9.727Zm-5.111,0A1.975,1.975,0,1,0,11.934,11.7,1.978,1.978,0,0,0,9.96,9.727Zm-5.112,0A1.975,1.975,0,1,0,6.825,11.7,1.977,1.977,0,0,0,4.848,9.727Zm-1.627-7.5A1.188,1.188,0,0,0,2.034,3.409V6.178A1.188,1.188,0,0,0,3.221,7.364H16.7a1.188,1.188,0,0,0,1.186-1.186V3.409A1.188,1.188,0,0,0,16.7,2.223Z" transform="translate(0)" fill="#0047cc"/>
  <path id="Fill_71" data-name="Fill 71" d="M2.487,1.075h-.74V.334a.336.336,0,0,0-.671,0v.741H.336a.335.335,0,1,0,0,.669h.739v.74a.336.336,0,0,0,.671,0v-.74h.74a.335.335,0,0,0,0-.669" transform="translate(3.438 10.293)" fill="#0eafe6"/>
  <path id="Fill_72" data-name="Fill 72" d="M.336.669H2.484a.335.335,0,1,0,0-.669H.336a.335.335,0,1,0,0,.669" transform="translate(8.549 11.368)" fill="#0eafe6"/>
  <path id="Fill_73" data-name="Fill 73" d="M2.093.1a.334.334,0,0,0-.475,0L1.094.622.572.1A.335.335,0,0,0,.1.573L.622,1.1.1,1.619a.335.335,0,1,0,.474.474l.522-.523.524.523a.335.335,0,0,0,.475-.474L1.57,1.1,2.093.573a.336.336,0,0,0,0-.474" transform="translate(3.753 16.068)" fill="#0eafe6"/>
  <path id="Fill_74" data-name="Fill 74" d="M1.432,2.83a.414.414,0,1,1,.414-.416A.415.415,0,0,1,1.432,2.83ZM2.486,1.75H.335a.336.336,0,0,1,0-.671H2.486a.336.336,0,0,1,0,.671ZM1.432.827A.414.414,0,1,1,1.846.414.414.414,0,0,1,1.432.827Z" transform="translate(8.549 15.749)" fill="#0eafe6"/>
  <path id="Fill_75" data-name="Fill 75" d="M2,1.758H.27A.309.309,0,0,1,0,1.422a.309.309,0,0,1,.27-.336H2a.308.308,0,0,1,.269.336A.308.308,0,0,1,2,1.758ZM2,.671H.27A.309.309,0,0,1,0,.335.308.308,0,0,1,.27,0H2A.308.308,0,0,1,2.27.335.308.308,0,0,1,2,.671Z" transform="translate(13.935 16.308)" fill="#0eafe6"/>
  <path id="Fill_76" data-name="Fill 76" d="M1.23,2.5A1.226,1.226,0,0,0,2.1,2.132a.323.323,0,1,0-.461-.452.581.581,0,0,1-.412.175.6.6,0,0,1-.586-.6A.6.6,0,0,1,1.23.646.562.562,0,0,1,1.64.822.324.324,0,0,0,2.1.369h0A1.222,1.222,0,0,0,1.23,0,1.24,1.24,0,0,0,0,1.251,1.241,1.241,0,0,0,1.23,2.5" transform="translate(13.866 10.452)" fill="#0eafe6"/>
</svg>
