<svg id="card" xmlns="http://www.w3.org/2000/svg" width="28.603" height="23.745" viewBox="0 0 28.603 23.745">
  <path id="Fill_88" data-name="Fill 88" d="M22.524,10.268a2.815,2.815,0,0,0-1.332-1.715L6.878.379a2.876,2.876,0,0,0-3.9,1.034L0,6.51H.8l.831-1.424L4.125,6.51H11.9L3.575,1.756h0A2.175,2.175,0,0,1,6.532.974L20.846,9.147a2.141,2.141,0,0,1,1.009,1.3,2.115,2.115,0,0,1-.217,1.623l-3.674-2.1a3.688,3.688,0,0,1,.021.4v4.057l1.707.975-1.707,2.924V19.7l4.252-7.284a2.783,2.783,0,0,0,.287-2.144" transform="translate(5.981)" fill="#0eafe6"/>
  <path id="Fill_89" data-name="Fill 89" d="M20.064,16.3H2.957A2.944,2.944,0,0,1,0,13.374V2.923A2.943,2.943,0,0,1,2.957,0H20.064a2.943,2.943,0,0,1,2.956,2.923V13.374A2.943,2.943,0,0,1,20.064,16.3Zm-.547-2.822a.357.357,0,0,0-.358.356v.729a.359.359,0,0,0,.717,0v-.729A.358.358,0,0,0,19.517,13.476Zm-1.386,0a.357.357,0,0,0-.358.356v.729a.359.359,0,0,0,.718,0v-.729A.358.358,0,0,0,18.131,13.476Zm-2.164,0a.357.357,0,0,0-.358.356v.729a.359.359,0,0,0,.717,0v-.729A.358.358,0,0,0,15.967,13.476Zm-1.558,0a.358.358,0,0,0-.359.356v.729a.359.359,0,0,0,.718,0v-.729A.358.358,0,0,0,14.409,13.476Zm-1.472,0a.358.358,0,0,0-.359.356v.729a.358.358,0,0,0,.716,0v-.729A.357.357,0,0,0,12.938,13.476Zm-2.3,0a.358.358,0,0,0-.359.356v.729a.358.358,0,0,0,.716,0v-.729A.357.357,0,0,0,10.642,13.476Zm-1.558,0a.357.357,0,0,0-.358.356v.729a.358.358,0,0,0,.716,0v-.729A.357.357,0,0,0,9.085,13.476Zm-1.473,0a.357.357,0,0,0-.358.356v.729a.359.359,0,0,0,.717,0v-.729A.358.358,0,0,0,7.611,13.476Zm-2.77,0a.357.357,0,0,0-.358.356v.729a.359.359,0,0,0,.717,0v-.729A.358.358,0,0,0,4.841,13.476Zm-1.385,0a.358.358,0,0,0-.359.356v.729a.359.359,0,0,0,.717,0v-.729A.357.357,0,0,0,3.456,13.476ZM6.225,9.142a2.372,2.372,0,0,1-.133.389,1.577,1.577,0,0,0-.159.865,1.146,1.146,0,0,0,.279.389,1.017,1.017,0,0,1,.305.479A5.371,5.371,0,0,1,6.408,12l0,.012,0,.008,0,.011,0,.009c-.121.622-.245,1.265.117,1.634H6.81v-.1c-.195-.238-.07-.5.05-.75l0-.01,0-.007a1.248,1.248,0,0,0,.137-.392c.028,0,.047,0,.068,0a.36.36,0,0,0,.311-.195.361.361,0,0,1,.3-.2L7.706,12c.144-.314.293-.639.665-.733a1.082,1.082,0,0,1,.143-.45l.006-.009a1.092,1.092,0,0,0,.143-.6,2.3,2.3,0,0,0-.779-.193c-.237-.488-.748-.756-1.659-.869h0Zm13.169,2.509h0a1.172,1.172,0,0,1,.413.264.993.993,0,0,0,.661.313c.63-.72.008-1.485-.2-1.736a.445.445,0,0,1-.241.091.364.364,0,0,1-.216-.091l-.006,0A.352.352,0,0,0,19.6,10.4h-.012a1.425,1.425,0,0,0-.815.376,2.761,2.761,0,0,1-.453.3,1.994,1.994,0,0,0,.178.823l.017.046a1.288,1.288,0,0,0,.464-.146l.007,0a1.414,1.414,0,0,1,.407-.139Zm-8.55-2.817a.77.77,0,0,1,.16.017l.029.05.011.019.024.042.005.009a3.473,3.473,0,0,1,.419.942.5.5,0,0,1-.044.25l0,.006,0,.005a.6.6,0,0,0-.049.221,1.571,1.571,0,0,0,.586,1.062,1.116,1.116,0,0,0,.682-.483,4.782,4.782,0,0,0,.282-.553,3.111,3.111,0,0,1,.206-.411A.25.25,0,0,0,13.1,9.8a.262.262,0,0,1-.043-.269,1.623,1.623,0,0,1,.252-.253l.006-.005c.266-.232.568-.495.327-.9a.525.525,0,0,0,.185-.093.441.441,0,0,1,.272-.1h.031a.469.469,0,0,0,.106-.215c.041-.132.084-.268.259-.268h.025l.061,0c.356,0,.459.254.559.5a.738.738,0,0,0,.355.466,1.015,1.015,0,0,1,.683-.771,1.409,1.409,0,0,1,.4.342,1.028,1.028,0,0,0,.677.429c.151-.142.095-.337.041-.525l-.008-.029c-.012-.04-.024-.081-.032-.122a2.047,2.047,0,0,0,.453-.159l.01,0a2.8,2.8,0,0,1,.317-.126.636.636,0,0,0,.059-.505c-.032-.189-.061-.353.138-.459a.271.271,0,0,1,.155.1.3.3,0,0,0,.138.1c.013-.387.284-.526.546-.661l.008,0a1.2,1.2,0,0,0,.42-.3c.035-.2-.08-.259-.191-.313s-.209-.1-.2-.266a1.4,1.4,0,0,1,.929-.321c.132-.015.3-.034.437-.065a.377.377,0,0,1-.165.317c-.06.056-.122.113-.124.184a.257.257,0,0,0,.093.175.6.6,0,0,0,.066,0c.21,0,.256-.164.3-.322a.564.564,0,0,1,.123-.262l.085-.022c.456-.113.928-.231.89-.846-.11-.021-.152-.107-.193-.19a.221.221,0,0,0-.049,0,1.772,1.772,0,0,0-.36.05h-.006a1.955,1.955,0,0,1-.382.05.718.718,0,0,1-.082,0,.311.311,0,0,1-.182-.11.341.341,0,0,0-.111-.083,2.155,2.155,0,0,0-.749-.115c-.135,0-.27.007-.387.013h-.056c-.12.006-.228.012-.337.012-.076,0-.151,0-.227-.01s-.076-.068-.076-.122c0-.034,0-.064-.021-.071a.206.206,0,0,0-.074-.013.408.408,0,0,0-.164.047l-.015.007a.517.517,0,0,1-.217.055h-.019a.467.467,0,0,1-.488-.482,1.95,1.95,0,0,0-.375-.038,3.589,3.589,0,0,0-1.662.559l-.108.058a.338.338,0,0,1-.055,0,.26.26,0,0,1-.161-.058l0,0a.262.262,0,0,0-.158-.057.427.427,0,0,0-.11.018c-.119.441-.649.483-1.162.525h-.034c-.156.013-.316.026-.462.052a1.673,1.673,0,0,0-.972-.329.839.839,0,0,0-.882.618.432.432,0,0,1-.173.112c-.112.049-.227.1-.218.275a.165.165,0,0,0-.012.136c.019.035.063.046.105.056H11.1c.044.01.089.021.107.057a.164.164,0,0,1-.012.135l-.02.034-.009.015c-.067.119-.137.241-.33.241H10.81c-.133-.005-.179-.1-.222-.191s-.094-.2-.237-.2h-.029a.284.284,0,0,1-.145.191.288.288,0,0,0-.148.195.53.53,0,0,1,.08-.006c.255,0,.3.215.336.423l0,.009a1.075,1.075,0,0,0,.069.248h-.044a.523.523,0,0,0-.346.1.806.806,0,0,0,.1.579,1.376,1.376,0,0,0-.567,1.293.68.68,0,0,0,.567.636h.047a.823.823,0,0,0,.287-.058A.836.836,0,0,1,10.844,8.834Zm2.891,1.272a.372.372,0,0,0-.287.111.74.74,0,0,0-.1.565h.01c.29,0,.323-.256.355-.5l0-.016C13.714,10.241,13.722,10.172,13.735,10.106Zm6.233-.3a.372.372,0,0,0-.282.1l.012.01.023.023.012.011.012.011.029.028a.626.626,0,0,0,.477.235.978.978,0,0,0,.217-.027.27.27,0,0,0-.069-.219A.6.6,0,0,0,19.968,9.81Zm-2.5-.337a.157.157,0,0,0-.12.056.7.7,0,0,1,.18.21.457.457,0,0,0,.406.273C17.9,9.809,17.665,9.472,17.465,9.472Zm1.148-.041-.031.007h0l-.008,0-.008,0-.016,0c-.215.047-.436.1-.423.372a.222.222,0,0,0,.162.081.427.427,0,0,0,.152-.04l.023-.008a.606.606,0,0,1,.224-.048.43.43,0,0,1,.122.014.167.167,0,0,0,.012-.136c-.018-.036-.067-.048-.1-.056l-.011,0c-.047-.011-.091-.022-.107-.056A.175.175,0,0,1,18.613,9.431ZM4.431,8.074a.086.086,0,0,1,.039.006.326.326,0,0,1,.184.253.6.6,0,0,0,.107.23,3.5,3.5,0,0,1,1.269.482.306.306,0,0,0-.139-.375.3.3,0,0,1-.153-.3.246.246,0,0,0-.081-.012.176.176,0,0,0-.156.1.173.173,0,0,1-.154.1.509.509,0,0,0-.087-.175l0,0a.478.478,0,0,1-.105-.3.492.492,0,0,1,.293-.289,1.7,1.7,0,0,1,.207-.014.752.752,0,0,1,.573.206.355.355,0,0,1,.141-.412.346.346,0,0,0,.15-.359,2.634,2.634,0,0,0,.207-.163A1.232,1.232,0,0,1,7.3,6.73a.593.593,0,0,0-.037-.173l0-.006,0-.005c-.019-.052-.032-.087-.016-.118s.064-.058.154-.085a.291.291,0,0,1,.065-.008c.083,0,.114.055.14.1s.065.127.152.127a.385.385,0,0,0,.131-.03c.043-.151-.052-.241-.153-.336a.972.972,0,0,1-.141-.146,1.021,1.021,0,0,1-.072-.125l-.005-.01-.005-.01L7.5,5.9,7.5,5.89l-.013-.024,0-.009,0-.007A.888.888,0,0,0,7.3,5.572a.118.118,0,0,0-.075-.02.716.716,0,0,0-.125.016.683.683,0,0,1-.126.017.134.134,0,0,1-.065-.013c-.018-.01-.03-.041-.047-.086-.039-.1-.092-.247-.256-.247a.491.491,0,0,0-.185.045l0,.06c.007.3.015.618-.2.711a.592.592,0,0,0-.37-.212c-.2-.06-.4-.121-.41-.365.02-.3.2-.319.366-.333a.464.464,0,0,0,.219-.054A1.057,1.057,0,0,0,6.08,4.9l0-.017c.035-.183.071-.372.294-.372h.01a.755.755,0,0,1,.134.3l0,.012c.059.24.106.429.576.46a.3.3,0,0,0,.065-.124l0-.005c.023-.071.048-.145.129-.16a.257.257,0,0,0-.145-.287.262.262,0,0,1-.148-.292,1.445,1.445,0,0,0-.36-.117c-.209-.048-.425-.1-.518-.269.034-.052.066-.1.1-.159l.005-.009a1.073,1.073,0,0,1,.674-.6A1.443,1.443,0,0,1,7.689,4.8a1.426,1.426,0,0,1,.136.131l.018.019.011.012a.759.759,0,0,0,.6.321h.012l0-.007,0,0a2.505,2.505,0,0,0,.286-.761,1.309,1.309,0,0,0,.684-.675,1.08,1.08,0,0,0-.336-.624l0,0a1.092,1.092,0,0,1-.344-.626H7.981c-.228.268-.707.274-1.213.279-.618.006-1.257.013-1.518.493a.566.566,0,0,0,.227.141l.009,0,.013,0,.005,0a.614.614,0,0,1,.233.139.641.641,0,0,0-.238.245L5.493,3.9a.453.453,0,0,1-.243.227l-.018,0a.165.165,0,0,1-.058-.016l-.005,0L5.154,4.1l0,0,0,0a.213.213,0,0,0-.095-.031.118.118,0,0,0-.095.059c-.023.148.085.2.173.247.055.028.1.051.109.092s-.022.081-.086.143H5.145a.417.417,0,0,1-.374-.258.574.574,0,0,0-.205-.224.505.505,0,0,1-.17.023.852.852,0,0,1-.373-.1L3.993,4.03l-.005,0a.657.657,0,0,0-.272-.087.35.35,0,0,0-.222.088c-.019.148-.009.239.032.286a.184.184,0,0,0,.148.043c.088,0,.178,0,.211.152a4.468,4.468,0,0,1-.594.052,6.043,6.043,0,0,1-.8-.067l-.027,0-.018,0-.014,0-.015,0H2.4l-.011,0-.02,0h-.01a5.3,5.3,0,0,0-.644-.049,2.711,2.711,0,0,0-.666.08c-.14.614-.006,1.048.391,1.255a.425.425,0,0,0,.307-.131l.007-.006a.463.463,0,0,1,.328-.153l.04,0a1.556,1.556,0,0,1,1.366,1.06.95.95,0,0,1,.049.387v.007a.92.92,0,0,0,.048.378.428.428,0,0,0,.172.131.683.683,0,0,1,.218.159.873.873,0,0,1,.129.31l0,.01a.42.42,0,0,0,.064.161.07.07,0,0,0,.053.014A.518.518,0,0,0,4.3,8.087h.016l.014,0h.016A.632.632,0,0,1,4.431,8.074ZM19.2,6.73c-.016.076-.147.142-.253.2l-.012.007c-.1.049-.177.092-.176.133,0,.018.016.034.05.049a1.051,1.051,0,0,1,.148-.058l.006,0c.137-.046.325-.109.336-.2C19.3,6.818,19.269,6.775,19.2,6.73ZM9.554,4.442a.3.3,0,0,0-.306.261h.489a.229.229,0,0,0-.03-.2A.19.19,0,0,0,9.554,4.442Zm-5.4-.518c.037,0,.079,0,.119.007h.01c.062.005.1.008.13.008a.176.176,0,0,0,.146-.047.173.173,0,0,0,0-.155,1.131,1.131,0,0,1-.144.033c-.132.026-.283.056-.343.16A.3.3,0,0,1,4.158,3.924Zm10.164-.571a.522.522,0,0,1-.179.149.349.349,0,0,0-.212.429h.027a.176.176,0,0,0,.138-.052.3.3,0,0,0,.031-.239c.065-.022.282-.165.274-.241C14.4,3.375,14.372,3.36,14.322,3.353Zm-2.927-.482a.294.294,0,0,0,.068.221.215.215,0,0,0,.158.059.538.538,0,0,0,.352-.161.317.317,0,0,0,.105-.216.547.547,0,0,0-.085-.007.5.5,0,0,0-.223.057l-.009,0a.522.522,0,0,1-.232.06A.829.829,0,0,1,11.395,2.871Zm1.154,4.362a1.273,1.273,0,0,1-.145-.011h-.011a.957.957,0,0,0-.1-.009h-.017l-.028,0c-.091.005-.216.013-.333.013a1.364,1.364,0,0,1-.225-.015.951.951,0,0,1-.388-.221.731.731,0,0,0-.417-.212.347.347,0,0,0-.17.047A.367.367,0,0,1,11.1,6.44c.2.029.416.086.488.29.036-.076.074-.112.118-.112s.118.065.17.123.074.082.1.086h.006a.186.186,0,0,0,.09-.043l.014-.009a.244.244,0,0,1,.135-.051.165.165,0,0,1,.048.007.913.913,0,0,1,.23.136,1.117,1.117,0,0,0,.257.153.189.189,0,0,1-.03.156A.229.229,0,0,1,12.549,7.233ZM11.7,5.486a.531.531,0,0,1-.105-.01,1.171,1.171,0,0,1,.074-.147l.009-.016a.678.678,0,0,0,.113-.514.333.333,0,0,1,.273.369A.345.345,0,0,1,11.7,5.486ZM5.725,4.6a.282.282,0,0,1-.194-.118.338.338,0,0,1-.086-.257.275.275,0,0,1,.091-.014c.111,0,.143.086.169.155s.052.13.131.147A.12.12,0,0,1,5.725,4.6Z" transform="translate(0 7.446)" fill="#0047cc"/>
</svg>
