<svg id="Down" xmlns="http://www.w3.org/2000/svg" width="48" height="48" viewBox="0 0 48 48">
  <rect id="Rectangle" width="48" height="48" rx="8" fill="rgba(242,71,80,0.1)"/>
  <g id="arrow" transform="translate(16.5 12.5) rotate(90)">
    <path id="Path" d="M21.687-6.747,15.144-.3A1.033,1.033,0,0,1,13.7-.3a1,1,0,0,1,0-1.426l4.8-4.731H1.022A1.015,1.015,0,0,1,0-7.46,1.015,1.015,0,0,1,1.022-8.468H18.5L13.7-13.2a1,1,0,0,1,0-1.426,1.027,1.027,0,0,1,.723-.3,1.027,1.027,0,0,1,.723.3l6.543,6.452A1,1,0,0,1,21.687-6.747Z" transform="translate(0 -0.074)" fill="#f24750"/>
  </g>
</svg>
