<svg id="Down" xmlns="http://www.w3.org/2000/svg" width="22" height="22" viewBox="0 0 22 22">
  <rect id="Rectangle" width="22" height="22" rx="6" fill="#f6e6e7"/>
  <g id="arrow" transform="translate(7 5) rotate(90)">
    <path id="Path" d="M11.829-3.6,8.26-.157a.572.572,0,0,1-.789,0,.524.524,0,0,1,0-.76l2.617-2.523H.558A.548.548,0,0,1,0-3.978a.548.548,0,0,1,.558-.538h9.531L7.472-7.039a.524.524,0,0,1,0-.76.567.567,0,0,1,.394-.157.567.567,0,0,1,.394.157l3.569,3.441A.524.524,0,0,1,11.829-3.6Z" transform="translate(0 -0.039)" fill="#f24750"/>
  </g>
</svg>
