<svg xmlns="http://www.w3.org/2000/svg" width="28.135" height="21.935" viewBox="0 0 28.135 21.935">
  <g id="Export" transform="translate(0 -0.039)">
    <path id="Path" d="M19.792,0H2.143A2.146,2.146,0,0,0,0,2.143v3.2H2.551A2.938,2.938,0,0,1,7.336,4.4l4.5,4.5a2.933,2.933,0,0,1,0,4.15l-4.5,4.5a2.938,2.938,0,0,1-4.786-.946H0v3.2a2.146,2.146,0,0,0,2.143,2.143H19.792a2.146,2.146,0,0,0,2.143-2.143V2.143A2.146,2.146,0,0,0,19.792,0Z" transform="translate(6.2 0.039)" fill="#0047cc"/>
    <path id="Path-2" data-name="Path" d="M10.483,9.971a.979.979,0,0,0,1.67.692l4.5-4.5a.978.978,0,0,0,0-1.383l-4.5-4.5a.979.979,0,0,0-1.67.692v.828H.978A.978.978,0,0,0,0,2.785v5.38a.978.978,0,0,0,.978.978h9.5Z" transform="translate(0 5.532)" fill="#0eafe6"/>
  </g>
</svg>
