<svg id="Gas" xmlns="http://www.w3.org/2000/svg" width="40" height="40" viewBox="0 0 40 40">
  <rect id="Rectangle" width="40" height="40" rx="8" fill="#00d793"/>
  <path id="Shape" d="M9.7,16H0V1.777A1.866,1.866,0,0,1,1.939,0H7.758A1.865,1.865,0,0,1,9.7,1.777V8h.97a1.866,1.866,0,0,1,1.94,1.778v4a.973.973,0,0,0,1.939,0V7.369a2.575,2.575,0,0,1-.97.186,2.332,2.332,0,0,1-2.424-2.222,2.219,2.219,0,0,1,1.561-2.071L10.667,1.387,11.695.445l3.612,3.3-.014.014A2.136,2.136,0,0,1,16,5.333v8.445A2.333,2.333,0,0,1,13.576,16a2.332,2.332,0,0,1-2.424-2.222V9.333H9.7V16ZM13.576,4.444a.933.933,0,0,0-.969.889.973.973,0,0,0,1.939,0A.933.933,0,0,0,13.576,4.444ZM1.939,1.777V6.223H7.758V1.777Z" transform="translate(13 12)" fill="#fff"/>
</svg>
