<svg id="master_logo" data-name="master logo" xmlns="http://www.w3.org/2000/svg" width="55.561" height="34" viewBox="0 0 55.561 34">
  <path id="Combined_Shape" data-name="Combined Shape" d="M27.78,29.939A16.7,16.7,0,0,1,16.851,34a17,17,0,0,1,0-34A16.7,16.7,0,0,1,27.78,4.061,16.7,16.7,0,0,1,38.711,0a17,17,0,0,1,0,34A16.7,16.7,0,0,1,27.78,29.939Z" fill="#ff5e00"/>
  <path id="Combined_Shape-2" data-name="Combined Shape" d="M16.851,34A16.666,16.666,0,0,1,4.935,29.021a17.107,17.107,0,0,1,0-24.042A16.742,16.742,0,0,1,27.78,4.061a17.1,17.1,0,0,0,0,25.878A16.764,16.764,0,0,1,16.851,34Z" fill="#ed0006"/>
  <path id="Combined_Shape-3" data-name="Combined Shape" d="M10.93,34A16.764,16.764,0,0,1,0,29.939,17.048,17.048,0,0,0,5.92,17,17.049,17.049,0,0,0,0,4.061a16.742,16.742,0,0,1,22.845.918,17.107,17.107,0,0,1,0,24.042A16.666,16.666,0,0,1,10.93,34Z" transform="translate(27.78)" fill="#f9a000"/>
</svg>
