<svg id="notification" xmlns="http://www.w3.org/2000/svg" width="40" height="40" viewBox="0 0 40 40">
  <rect id="Rectangle" width="40" height="40" rx="8" fill="#dfe7f5"/>
  <path id="Path" d="M7.858,0a5.5,5.5,0,0,0-5.5,5.5V7.69A5.268,5.268,0,0,1,.481,11.724a1.375,1.375,0,0,0-.432,1.411,1.441,1.441,0,0,0,1.413,1.008H14.249a1.44,1.44,0,0,0,1.436-1.09,1.377,1.377,0,0,0-.469-1.345,5.228,5.228,0,0,1-1.85-3.852S13.367,0,7.858,0Z" transform="translate(12.037 11.714)" fill="#0047cc" opacity="0.9"/>
</svg>
