<svg id="send" xmlns="http://www.w3.org/2000/svg" width="21.599" height="21.797" viewBox="0 0 21.599 21.797">
  <path id="Fill_92" data-name="Fill 92" d="M0,21.787H0V16.3H4.473a13.213,13.213,0,0,1-.991,2.456C2.525,20.528,1.289,21.606,0,21.787Zm2.961-.476h0a9.2,9.2,0,0,0,1.48-2.068A14.421,14.421,0,0,0,5.6,16.3H9.263a11.074,11.074,0,0,1-6.3,5.016Zm6.745-5.864H5.815a20.44,20.44,0,0,0,.482-4.2h4.412a10.684,10.684,0,0,1-1,4.2Zm-5.008,0H0v-4.2H5.214a19.43,19.43,0,0,1-.516,4.2ZM5.209,10.4H0V6.168H4.654a19.134,19.134,0,0,1,.555,4.226Zm5.5,0H6.3a20.523,20.523,0,0,0-.522-4.227H9.627a10.736,10.736,0,0,1,1.078,4.226ZM9.164,5.322H5.554A14.41,14.41,0,0,0,4.441,2.543,9.088,9.088,0,0,0,2.957.475,11.1,11.1,0,0,1,9.163,5.32Zm-4.746,0H0V0C1.288.18,2.524,1.258,3.482,3.034A13.078,13.078,0,0,1,4.417,5.32Z" transform="translate(10.89 0.01)" fill="#0eafe6"/>
  <path id="Fill_93" data-name="Fill 93" d="M9.338,21.79H7.388V20.646A12.9,12.9,0,0,1,4.2,20.027a6.513,6.513,0,0,1-2.11-1.244,6.116,6.116,0,0,1-1.37-1.709A7.957,7.957,0,0,1,0,14.854l5.4-.61a4.865,4.865,0,0,0,.646,1.86,3.415,3.415,0,0,0,1.343,1.014v-4.6A25.909,25.909,0,0,1,3.56,11.254,5.037,5.037,0,0,1,1.606,9.543a4.89,4.89,0,0,1-.83-2.874A5.108,5.108,0,0,1,2.44,2.8,7.63,7.63,0,0,1,7.388,1.069V0H9.338V21.789ZM7.388,4.426A2.542,2.542,0,0,0,6.2,5.106a1.472,1.472,0,0,0-.335.956,1.575,1.575,0,0,0,.34,1,2.521,2.521,0,0,0,1.184.709Z" transform="translate(0 0)" fill="#0047cc"/>
</svg>
