<svg id="settings" xmlns="http://www.w3.org/2000/svg" width="40" height="40" viewBox="0 0 40 40">
  <rect id="Rectangle" width="40" height="40" rx="8" fill="#dfe7f5"/>
  <path id="Shape" d="M10.166,18h-2a.335.335,0,0,1-.328-.27l-.2-1.043a1.819,1.819,0,0,0-1.786-1.472,1.792,1.792,0,0,0-1.066.353l-.894.655a.333.333,0,0,1-.432-.033L2.047,14.775a.335.335,0,0,1-.04-.423l.595-.879a1.813,1.813,0,0,0-1.225-2.809L.283,10.5A.332.332,0,0,1,0,10.166v-2A.333.333,0,0,1,.27,7.84l1.043-.2a1.813,1.813,0,0,0,1.12-2.852l-.655-.893a.332.332,0,0,1,.033-.433L3.226,2.047a.333.333,0,0,1,.422-.04l1.136.769A1.79,1.79,0,0,0,5.8,3.09,1.821,1.821,0,0,0,7.581,1.617L7.839.271A.335.335,0,0,1,8.167,0h2A.33.33,0,0,1,10.5.283l.168,1.094A1.81,1.81,0,0,0,13.473,2.6l.879-.6a.334.334,0,0,1,.422.041l1.414,1.414a.333.333,0,0,1,.033.433l-.654.893a1.812,1.812,0,0,0,1.12,2.852l1.042.2A.335.335,0,0,1,18,8.167v2a.332.332,0,0,1-.283.329l-1.094.168A1.813,1.813,0,0,0,15.4,13.473l.595.879a.333.333,0,0,1-.04.422l-1.415,1.414a.331.331,0,0,1-.432.033l-.628-.46a1.791,1.791,0,0,0-1.066-.354,1.809,1.809,0,0,0-1.8,1.54l-.119.769A.332.332,0,0,1,10.166,18Zm-1-11.667A2.833,2.833,0,1,0,12,9.167,2.836,2.836,0,0,0,9.167,6.333Z" transform="translate(11 11)" fill="#0047cc"/>
  <path id="Path" d="M1.833,0A1.833,1.833,0,1,0,3.667,1.833,1.835,1.835,0,0,0,1.833,0Z" transform="translate(18.333 18.333)" fill="#0eafe6"/>
</svg>
