<svg id="shopping" xmlns="http://www.w3.org/2000/svg" width="40" height="40" viewBox="0 0 40 40">
  <rect id="Rectangle" width="40" height="40" rx="8" fill="#ff7e87"/>
  <path id="Shape" d="M12.8,16a1.6,1.6,0,1,1,1.6-1.6A1.6,1.6,0,0,1,12.8,16Zm-8,0a1.6,1.6,0,1,1,1.6-1.6A1.6,1.6,0,0,1,4.8,16Zm9.6-4H4.8a1.6,1.6,0,0,1-1.6-1.6,2.776,2.776,0,0,1,.159-.8L4.48,7.68,1.6,1.6H0V0H2.64l.72,1.6H15.2a.757.757,0,0,1,.8.8.44.44,0,0,1-.16.4L12.96,8a1.458,1.458,0,0,1-1.36.8H5.68l-.72,1.36v.08a.171.171,0,0,0,.16.16H14.4V12Z" transform="translate(12 12)" fill="#fff"/>
</svg>
