<svg xmlns="http://www.w3.org/2000/svg" width="48" height="48" viewBox="0 0 48 48">
  <g id="tax" transform="translate(93 3536)">
    <rect id="Rectangle_4" data-name="Rectangle 4" width="48" height="48" transform="translate(-93 -3536)" fill="none"/>
    <g id="Group_10" data-name="Group 10" transform="translate(-533 -4504.5)">
      <g id="tax-2" data-name="tax" transform="translate(451 975.5)">
        <path id="Path_19" data-name="Path 19" d="M28.392,9h-.251l-.86,3.441h1.971Z" transform="translate(-16.798 -5.559)" fill="#0041c4"/>
        <path id="Path_20" data-name="Path 20" d="M14.764,51.332V47h-4.35l4.252,4.252A1.21,1.21,0,0,0,14.764,51.332Z" transform="translate(-9.603 -21.768)" fill="#0041c4"/>
        <path id="Path_21" data-name="Path 21" d="M15.308,32.819h16.63V3H9V26.946a1.137,1.137,0,0,0,.014.139h6.294ZM19.9,21.35H12.441V20.2H19.9Zm0-4.588H18.749V15.616H19.9ZM21.784,30.12l6.881-6.881.811.811-6.881,6.881Zm.405-5.329a1.147,1.147,0,1,1,1.147,1.147A1.148,1.148,0,0,1,22.189,24.791Zm5.734,5.734a1.147,1.147,0,1,1,1.147-1.147A1.148,1.148,0,0,1,27.924,30.525ZM25.056,10.837l1.577-2.1-1.577-2.1V5.294H26.2V6.25L27.35,7.779,28.5,6.25V5.294h1.147V6.632l-1.577,2.1,1.577,2.1v1.338H28.5v-.956L27.35,9.69,26.2,11.219v.956H25.056Zm-6.864-.521,1.255-5.022H21.49l1.272,5.161v1.72H21.616V11.028H19.322v1.147H18.175Zm-6.9-5.022h5.734V6.441H14.734v5.734H13.588V6.441H11.294Zm-1.147,8.028H30.791v1.147H10.147Zm0,2.294H17.6v1.147H10.147Zm0,2.294H19.9v1.147H10.147Zm0,2.294h1.147V21.35H10.147Zm0,3.441V22.5h5.734v1.147Z" transform="translate(-9 -3)" fill="#0041c4"/>
        <path id="Path_22" data-name="Path 22" d="M36.071,10V36.952H17.859a2.308,2.308,0,0,1-1.622-.672L16,36.042v3.2H38.364V10Z" transform="translate(-11.986 -5.986)" fill="#0041c4"/>
      </g>
    </g>
  </g>
</svg>
