<svg xmlns="http://www.w3.org/2000/svg" width="48" height="48" viewBox="0 0 48 48">
  <g id="transport" transform="translate(-74 -1088.5)">
    <rect id="Rectangle_1" data-name="Rectangle 1" width="48" height="48" transform="translate(74 1088.5)" fill="none"/>
    <g id="surface1" transform="translate(77 1101.924)">
      <path id="Path_1" data-name="Path 1" d="M632.888,2.33A19.24,19.24,0,0,0,624,.125h-.428V4.037h8Zm0,0" transform="translate(-599.392 0)" fill="#0041c4"/>
      <path id="Path_2" data-name="Path 2" d="M9.067,117.047A13.586,13.586,0,0,0,.973,119.83,2.7,2.7,0,0,0,0,122v4.83H1.511c0-3.241,2.03-5.869,4.533-5.869s4.534,2.628,4.534,5.869H22.667v-9.781Zm8.312.978H20.4v1.956H17.378Zm0,0" transform="translate(0 -111.053)" fill="#0041c4"/>
      <path id="Path_3" data-name="Path 3" d="M80.968,233.969c-1.669,0-3.022,1.752-3.022,3.913s1.353,3.912,3.022,3.912,3.022-1.752,3.022-3.912S82.637,233.969,80.968,233.969Zm0,0" transform="translate(-74.923 -222.106)" fill="#0041c4"/>
      <path id="Path_4" data-name="Path 4" d="M310.266,4.854H320.9V.984a20.156,20.156,0,0,0-10.491,3.772Zm0,0" transform="translate(-298.236 -0.817)" fill="#0041c4"/>
      <path id="Path_5" data-name="Path 5" d="M641.7,64.617V63.509l-4.641-.858a.657.657,0,0,1-.293-.139,23.211,23.211,0,0,0-2.4-1.7l-1.959,2.536a.681.681,0,0,1-.534.286H623.57V73.42h6.045c0-3.24,2.031-5.866,4.534-5.869a3.574,3.574,0,0,1,.461.031c.056.007.11.023.166.032.094.018.19.031.283.056.058.016.113.039.171.057.087.028.176.052.262.087.064.026.126.06.189.089s.152.068.227.108.125.077.188.116.14.082.207.13.119.093.179.139.13.1.194.153.117.111.175.167.117.108.173.168.11.129.165.2.106.119.156.183.1.142.151.213.1.131.14.2.091.155.137.232.085.142.125.217.075.164.119.247.075.154.109.234.066.172.1.258.065.165.093.251.053.179.076.269.054.176.075.267.039.185.058.278.041.185.057.28.024.19.036.285.027.2.035.294.009.195.014.293.012.179.014.269l2.167-1.123a1.808,1.808,0,0,0,.857-1.639v-4.01h-2.267V64.617Zm0,0" transform="translate(-599.392 -57.645)" fill="#0041c4"/>
      <path id="Path_6" data-name="Path 6" d="M821.46,233.969c-1.669,0-3.022,1.752-3.022,3.913s1.353,3.912,3.022,3.912,3.022-1.752,3.022-3.912S823.13,233.969,821.46,233.969Zm0,0" transform="translate(-786.704 -222.106)" fill="#0041c4"/>
      <path id="Path_23" data-name="Path 23" d="M79.936,233.969a2.663,2.663,0,1,0,1.99,2.577A2.341,2.341,0,0,0,79.936,233.969Zm0,0" transform="translate(-73.891 -220.771)" fill="#00b3f3"/>
      <path id="Path_24" data-name="Path 24" d="M820.6,233.969c-1.194,0-2.163,1.254-2.163,2.8s.969,2.8,2.163,2.8,2.163-1.254,2.163-2.8S821.8,233.969,820.6,233.969Zm0,0" transform="translate(-785.845 -220.994)" fill="#00b3f3"/>
    </g>
  </g>
</svg>
