<svg xmlns="http://www.w3.org/2000/svg" width="18.831" height="17.974" viewBox="0 0 18.831 17.974">
  <g id="verified" transform="translate(0 -0.013)">
    <path id="Shape" d="M6.507,17.9c-.764-.246-1.076-1.013-1.352-1.691a2.929,2.929,0,0,0-.419-.817,2.874,2.874,0,0,0-.895-.139,2.632,2.632,0,0,1-2.05-.75,2.478,2.478,0,0,1-.1-2.188,2.736,2.736,0,0,0,.148-.882,2.706,2.706,0,0,0-.631-.626A2.534,2.534,0,0,1,0,8.983,2.568,2.568,0,0,1,1.228,7.14a2.871,2.871,0,0,0,.626-.607A2.99,2.99,0,0,0,1.7,5.643a2.519,2.519,0,0,1,.071-2.152,2.5,2.5,0,0,1,2.038-.765,2.922,2.922,0,0,0,.91-.142,2.9,2.9,0,0,0,.419-.815A2.566,2.566,0,0,1,6.489.076a2.489,2.489,0,0,1,2.1.59,2.736,2.736,0,0,0,.829.431,2.765,2.765,0,0,0,.844-.425A2.485,2.485,0,0,1,12.324.1c.763.245,1.076,1.013,1.351,1.69A2.92,2.92,0,0,0,14.1,2.6a2.925,2.925,0,0,0,.895.14,2.583,2.583,0,0,1,2.048.758,2.51,2.51,0,0,1,.1,2.168,2.8,2.8,0,0,0-.147.892,2.7,2.7,0,0,0,.633.614,2.491,2.491,0,0,1,1.211,1.807A2.566,2.566,0,0,1,17.6,10.828a2.855,2.855,0,0,0-.625.608,2.917,2.917,0,0,0,.146.881,2.5,2.5,0,0,1-.092,2.171A2.528,2.528,0,0,1,15,15.241a2.858,2.858,0,0,0-.906.142,2.918,2.918,0,0,0-.42.815,2.561,2.561,0,0,1-1.345,1.694,2.483,2.483,0,0,1-2.085-.57,2.715,2.715,0,0,0-.827-.419,2.759,2.759,0,0,0-.842.425,3.217,3.217,0,0,1-1.613.645A1.44,1.44,0,0,1,6.507,17.9Z" transform="translate(0 0.013)" fill="#fece46"/>
    <path id="Path" d="M7.37.181a.779.779,0,0,0-1.1.1L2.8,4.4,1.329,2.937a.78.78,0,0,0-1.1,0,.77.77,0,0,0,0,1.095L2.306,6.1a.775.775,0,0,0,.55.227.244.244,0,0,0,.033,0,.777.777,0,0,0,.563-.276L7.467,1.271A.771.771,0,0,0,7.37.181Z" transform="translate(5.525 5.899)" fill="#fff"/>
  </g>
</svg>
