<svg id="Component_Icon_Donation" data-name="Component/Icon/Donation" xmlns="http://www.w3.org/2000/svg" width="48" height="48" viewBox="0 0 48 48">
  <path id="Path" d="M40,26.667H0V2.857A2.86,2.86,0,0,1,2.857,0H37.143A2.86,2.86,0,0,1,40,2.857v23.81ZM16.19,15.238a.952.952,0,0,0-.673,1.626l3.809,3.809a.952.952,0,0,0,1.346,0l3.811-3.809a.953.953,0,0,0-1.348-1.346L20.952,17.7V10.476a.952.952,0,0,0-1.9,0V17.7l-2.183-2.183A.947.947,0,0,0,16.19,15.238Z" transform="translate(4 4)" fill="#0041c4"/>
  <path id="Path-2" data-name="Path" d="M40,0V4.762a6.667,6.667,0,0,1-6.667,6.667H6.667A6.667,6.667,0,0,1,0,4.762V0Z" transform="translate(4 32.571)" fill="#00b3f3"/>
</svg>
