<svg id="Component_Icon_Donation" data-name="Component/Icon/Donation" xmlns="http://www.w3.org/2000/svg" width="48" height="48" viewBox="0 0 48 48">
  <path id="path" d="M18.349,8.738c1.229-2.667.1-4.865-3.032-6.226L10.135.373a4.935,4.935,0,0,0-5.008.743L.362,5.017.223,6.406,0,17.766V19.74H5.766l11.759,3.339a4.935,4.935,0,0,0,4.312-.8c7.748-5.82,12.925-9.75,13.709-10.479,1.9-1.766,2.649-3.73,1.295-5.665-1.095-1.565-2.941-1.732-5.229-.7L20.483,11.094,17.354,10.1A3.94,3.94,0,0,0,18.349,8.738Z" transform="translate(6.469 17.818)" fill="#0041c4"/>
  <path id="path-2" data-name="path" d="M1.481,38a1.481,1.481,0,1,1,0-2.961h.493V16.286H1.481a1.481,1.481,0,1,1,0-2.961H3.456a1.48,1.48,0,0,1,1.481,1.48V36.52A1.48,1.48,0,0,1,3.456,38ZM26.172,14.789v-.97H23.209a.988.988,0,0,1-.986-1.017l.027-.905a.988.988,0,0,1,1.973-.052h4.914a.986.986,0,0,0,.986-.986V9.871a.986.986,0,0,0-.986-.986H25.213A2.963,2.963,0,0,1,22.25,5.924V4.936a2.961,2.961,0,0,1,2.963-2.961h.959V.986a.988.988,0,0,1,1.976,0v.988h2.869a.986.986,0,0,1,.988.986v.747a.988.988,0,0,1-1.946.239H25.213a.989.989,0,0,0-.988.988v.988a.987.987,0,0,0,.988.986h3.924A2.963,2.963,0,0,1,32.1,9.871v.986a2.963,2.963,0,0,1-2.963,2.961h-.988v.97a.988.988,0,0,1-1.976,0Z" transform="translate(4 4)" fill="#00b3f3"/>
</svg>
