<svg id="Component_Icon_Donation" data-name="Component/Icon/Donation" xmlns="http://www.w3.org/2000/svg" width="48" height="48" viewBox="0 0 48 48">
  <path id="path" d="M33.334,26.248H6.667A6.622,6.622,0,0,1,0,19.687V6.563A6.623,6.623,0,0,1,6.667,0H33.334A6.622,6.622,0,0,1,40,6.563V19.687A6.621,6.621,0,0,1,33.334,26.248ZM16.216,16.014a.939.939,0,0,0-.951.909l-.027.859a.924.924,0,0,0,.263.677.951.951,0,0,0,.689.29h2.857v.92a.952.952,0,0,0,1.9,0v-.92H21.9a2.839,2.839,0,0,0,2.858-2.813V15A2.839,2.839,0,0,0,21.9,12.188H18.122a.946.946,0,0,1-.952-.938v-.938a.946.946,0,0,1,.952-.938H22.8a.954.954,0,0,0,1.876-.229V8.437A.946.946,0,0,0,23.72,7.5H20.952V6.563a.952.952,0,0,0-1.9,0V7.5h-.925a2.839,2.839,0,0,0-2.858,2.813v.938a2.839,2.839,0,0,0,2.858,2.813H21.9a.945.945,0,0,1,.952.936v.936a.946.946,0,0,1-.952.938H17.167a.944.944,0,0,0-.92-.859h-.03Z" transform="translate(4 4)" fill="#0041c4"/>
  <path id="path-2" data-name="path" d="M28.117,10.347A1.446,1.446,0,0,1,27.1,9.918a1.4,1.4,0,0,1-.436-1,1.374,1.374,0,0,1,.436-.989l1.37-1.35H20.493a1.357,1.357,0,0,1-1.428-1.406,1.357,1.357,0,0,1,1.428-1.406h7.979L27.1,2.417a1.371,1.371,0,0,1-.436-.988,1.4,1.4,0,0,1,.436-1A1.443,1.443,0,0,1,28.116,0a1.417,1.417,0,0,1,1.006.43L32.731,4a1.318,1.318,0,0,1,.479.549,1.315,1.315,0,0,1,.158.634,1.256,1.256,0,0,1-.144.592,1.192,1.192,0,0,1-.419.522L29.122,9.918A1.415,1.415,0,0,1,28.117,10.347Zm-22.866,0a1.42,1.42,0,0,1-1.007-.429L.635,6.352A1.29,1.29,0,0,1,.158,5.8,1.292,1.292,0,0,1,0,5.17a1.241,1.241,0,0,1,.144-.594,1.166,1.166,0,0,1,.418-.52L4.244.43A1.421,1.421,0,0,1,5.252,0,1.443,1.443,0,0,1,6.266.43a1.4,1.4,0,0,1,.436,1,1.371,1.371,0,0,1-.436.988L4.894,3.767h7.979A1.358,1.358,0,0,1,14.3,5.173a1.358,1.358,0,0,1-1.43,1.406H4.894l1.372,1.35a1.374,1.374,0,0,1,.436.989,1.4,1.4,0,0,1-.436,1A1.447,1.447,0,0,1,5.251,10.347Z" transform="translate(7.333 33.653)" fill="#00b3f3"/>
</svg>
